<?xml version="1.0" standalone="no"?>
<!DOCTYPE svg PUBLIC "-//W3C//DTD SVG 20010904//EN"
 "http://www.w3.org/TR/2001/REC-SVG-20010904/DTD/svg10.dtd">
<svg version="1.0" xmlns="http://www.w3.org/2000/svg"
 width="512.000000pt" height="512.000000pt" viewBox="0 0 512.000000 512.000000"
 preserveAspectRatio="xMidYMid meet">
<metadata>
Created by potrace 1.14, written by Peter Selinger 2001-2017
</metadata>
<g transform="translate(0.000000,512.000000) scale(0.100000,-0.100000)"
fill="#000000" stroke="none">
<path d="M495 5101 c-56 -26 -94 -70 -109 -127 -9 -38 -12 -564 -11 -2434 1
-2285 2 -2387 19 -2422 24 -49 76 -94 123 -107 26 -8 677 -11 2053 -11 1940 0
2016 1 2055 19 54 25 94 69 109 122 18 65 16 4797 -3 4851 -15 46 -78 103
-128 117 -26 8 -663 11 -2053 11 -1940 0 -2016 -1 -2055 -19z m3855 -2541 l0
-2166 -1790 0 -1790 0 0 2161 c0 1189 2 2164 5 2166 2 3 808 5 1790 5 l1785 0
0 -2166z"/>
<path d="M1325 3510 l0 -360 361 0 360 0 0 360 0 360 -361 0 -360 0 0 -360z
m610 175 c14 -13 25 -30 25 -38 0 -11 -237 -257 -319 -331 -21 -19 -22 -18
-126 86 -58 58 -105 112 -105 120 0 15 50 68 64 68 5 0 40 -31 80 -70 l72 -69
129 129 c70 72 134 130 142 130 8 0 25 -11 38 -25z"/>
<path d="M2197 3702 c-2 -6 -1 -330 2 -374 1 -17 47 -18 824 -18 l823 0 0 198
-1 197 -822 2 c-453 1 -824 -2 -826 -5z"/>
<path d="M1329 2923 c-1 -5 -2 -167 -3 -361 l-1 -352 360 2 360 3 1 358 0 357
-358 0 c-197 0 -359 -3 -359 -7z m604 -177 c15 -13 27 -30 27 -38 0 -13 -150
-169 -304 -317 l-35 -34 -106 104 c-58 57 -105 111 -105 120 0 15 30 47 59 64
9 5 36 -15 85 -64 l71 -71 130 130 c71 72 134 130 140 130 5 0 22 -11 38 -24z"/>
<path d="M2198 2757 c-2 -7 -3 -95 -3 -197 l0 -185 826 -3 825 -2 0 197 -1
198 -822 2 c-613 1 -822 -2 -825 -10z"/>
<path d="M1329 1968 c-1 -2 -2 -162 -3 -356 -1 -306 1 -355 14 -361 19 -8 683
-7 696 2 7 4 10 136 10 359 l-1 353 -357 3 c-197 1 -359 1 -359 0z"/>
<path d="M2198 1790 c-2 -8 -3 -96 -3 -195 l1 -180 825 -3 825 -2 0 195 c0
107 -2 196 -5 196 -3 1 -374 2 -823 3 -725 1 -817 0 -820 -14z"/>
</g>
</svg>
